<?xml version="1.0" encoding="utf-8"?>
<!-- Generator: Adobe Illustrator 21.0.0, SVG Export Plug-In . SVG Version: 6.00 Build 0)  -->
<svg version="1.1" id="Layer_1" xmlns="http://www.w3.org/2000/svg" xmlns:xlink="http://www.w3.org/1999/xlink" x="0px" y="0px"
	 viewBox="0 0 32 31.9" style="enable-background:new 0 0 32 31.9;" xml:space="preserve">
<style type="text/css">
	.st0{fill:#8BB4D9;}
	.st1{clip-path:url(#SVGID_2_);fill:#093C71;}
</style>
<path class="st0" d="M16,4.8l-2.6,7.6H4.9l6.9,4.8l-2.6,7.7l6.8-4.7l6.8,4.7l-2.6-7.7l6.9-4.8h-8.5L16,4.8z M17.8,16.4l1.1,3.3
	L16,17.7l-2.9,2.1l1.1-3.3l-2.9-2h3.6l1.1-3.4l1.1,3.4h3.6L17.8,16.4z"/>
<g>
	<defs>
		<rect id="SVGID_1_" y="0" width="32" height="31.9"/>
	</defs>
	<clipPath id="SVGID_2_">
		<use xlink:href="#SVGID_1_"  style="overflow:visible;"/>
	</clipPath>
	<path class="st1" d="M16,0C7.2,0,0,7.2,0,16s7.2,16,16,16s16-7.2,16-16S24.8,0,16,0 M16,29.9c-7.7,0-14-6.3-14-14S8.3,2,16,2
		s14,6.3,14,14S23.7,29.9,16,29.9"/>
</g>
</svg>
