<?xml version="1.0" encoding="utf-8"?>
<!-- Generator: Adobe Illustrator 21.0.0, SVG Export Plug-In . SVG Version: 6.00 Build 0)  -->
<svg version="1.1" id="Layer_1" xmlns="http://www.w3.org/2000/svg" xmlns:xlink="http://www.w3.org/1999/xlink" x="0px" y="0px"
	 viewBox="0 0 70.9 90" style="enable-background:new 0 0 70.9 90;" xml:space="preserve">
<style type="text/css">
	.st0{clip-path:url(#SVGID_2_);fill:#093C71;}
	.st1{clip-path:url(#SVGID_2_);fill:#8BB4D9;}
</style>
<g>
	<defs>
		<rect id="SVGID_1_" y="0" width="70.9" height="90"/>
	</defs>
	<clipPath id="SVGID_2_">
		<use xlink:href="#SVGID_1_"  style="overflow:visible;"/>
	</clipPath>
	<path class="st0" d="M64.1,54.9c1.4-2,1.5-4.4,1.5-6.8c0-1.5,0-2.9,0.4-4.1c0.3-1.1,1.2-2.2,2-3.4c1.3-1.9,2.8-4,2.8-6.5
		c0-2.5-1.5-4.7-2.8-6.5c-0.8-1.2-1.6-2.3-2-3.4c-0.4-1.2-0.4-2.6-0.4-4.1c0-2.4-0.1-4.8-1.5-6.8c-1.4-2-3.8-2.8-6-3.5
		c-1.4-0.5-2.8-0.9-3.7-1.6c-0.9-0.7-1.8-1.8-2.7-3c-1.4-1.9-2.9-3.9-5.3-4.7c-2.3-0.7-4.6,0-6.8,0.7c-1.5,0.5-2.9,0.9-4.1,0.9
		c-1.3,0-2.6-0.4-4.1-0.9c-2.3-0.7-4.6-1.4-6.8-0.7c-2.4,0.8-3.8,2.8-5.3,4.7c-0.9,1.2-1.7,2.3-2.7,3c-1,0.7-2.3,1.2-3.7,1.6
		c-2.3,0.8-4.6,1.6-6,3.5c-1.4,2-1.5,4.4-1.5,6.8c0,1.5,0,2.9-0.4,4.1c-0.4,1.1-1.2,2.2-2,3.4C1.5,29.4,0,31.5,0,34
		c0,2.5,1.5,4.7,2.8,6.5c0.8,1.2,1.6,2.3,2,3.4c0.4,1.2,0.4,2.6,0.4,4.1c0,2.4,0.1,4.8,1.5,6.8c1.4,2,3.8,2.8,6,3.5
		c1.1,0.4,2.2,0.8,3.1,1.3L6.4,81.2l12.4-1.1l7.5,9.9l9.3-21.1l8.9,21l7.6-9.8l12.3,1.3l-9.3-21.9c0.9-0.4,1.9-0.8,2.9-1.2
		C60.4,57.7,62.7,56.9,64.1,54.9 M25.6,84.2L20.1,77l-9,0.8l7.1-16.1c0.3,0.4,0.7,0.8,1,1.3c1.4,1.9,2.9,3.9,5.3,4.7
		c0.7,0.2,1.4,0.3,2,0.3c1.6,0,3.2-0.5,4.8-1c0.7-0.2,1.4-0.4,2.1-0.6L25.6,84.2z M59.8,78l-9-0.9l-5.6,7.1l-7.5-17.6
		c0.6,0.2,1.2,0.3,1.8,0.5c2.3,0.7,4.6,1.4,6.8,0.7c2.4-0.8,3.8-2.8,5.3-4.7c0.4-0.5,0.8-1,1.1-1.5L59.8,78z M52.6,57.7
		c-1.3,1-2.3,2.3-3.3,3.6c-1.2,1.6-2.4,3.2-3.8,3.6c-1.4,0.4-3.2-0.1-5.1-0.7c-1.6-0.5-3.3-1-5-1c-1.7,0-3.4,0.5-5,1
		c-1.9,0.6-3.7,1.1-5.1,0.7c-1.5-0.5-2.6-2-3.8-3.6c-1-1.3-2-2.7-3.3-3.6c-1.3-1-2.9-1.5-4.5-2.1c-1.9-0.7-3.7-1.3-4.6-2.5
		C8.3,51.9,8.3,50,8.2,48c0-1.7-0.1-3.4-0.6-5c-0.5-1.5-1.5-2.9-2.4-4.2C4.1,37.2,3,35.6,3,34s1.1-3.2,2.3-4.8
		c0.9-1.3,1.9-2.7,2.4-4.2c0.5-1.6,0.5-3.3,0.6-5c0-2,0.1-3.9,0.9-5.1c0.9-1.2,2.7-1.8,4.6-2.5c1.6-0.5,3.2-1.1,4.5-2.1
		c1.3-1,2.3-2.3,3.3-3.6c1.2-1.6,2.4-3.2,3.8-3.6C25.8,3,26.1,3,26.5,3c1.2,0,2.5,0.4,3.9,0.9c1.6,0.5,3.3,1,5,1c1.7,0,3.4-0.5,5-1
		c1.9-0.6,3.7-1.1,5.1-0.7c1.5,0.5,2.6,2,3.8,3.6c1,1.3,2,2.7,3.3,3.6c1.3,1,2.9,1.5,4.5,2.1c1.9,0.7,3.7,1.3,4.6,2.5
		c0.9,1.2,0.9,3.1,0.9,5.1c0,1.7,0.1,3.4,0.6,5c0.5,1.5,1.5,2.9,2.4,4.2c1.2,1.7,2.3,3.3,2.3,4.8c0,1.6-1.1,3.2-2.3,4.8
		c-0.9,1.3-1.9,2.7-2.4,4.2c-0.5,1.6-0.5,3.3-0.6,5c0,2-0.1,3.9-0.9,5.1c-0.9,1.2-2.7,1.8-4.6,2.5C55.6,56.2,54,56.7,52.6,57.7"/>
	<path class="st1" d="M35.5,9.3C21.8,9.3,10.8,20.4,10.8,34s11.1,24.7,24.7,24.7S60.1,47.7,60.1,34S49.1,9.3,35.5,9.3 M35.5,55.8
		c-5.1,0-9.9-1.8-13.6-4.8c1.6-4,5.5-6.7,9.8-6.7h7.5c4.4,0,8.3,2.7,9.9,6.7C45.3,54,40.6,55.8,35.5,55.8 M28.3,31.3
		c0-4,3.2-7.2,7.2-7.2s7.2,3.2,7.2,7.2s-3.2,7.2-7.2,7.2C31.5,38.4,28.3,35.2,28.3,31.3 M51.3,48.9c-2.3-4.6-7-7.6-12.1-7.6h-2.6
		c5.1-0.5,9.1-4.8,9.1-10.1c0-5.6-4.5-10.1-10.1-10.1c-5.6,0-10.1,4.5-10.1,10.1c0,5.2,4,9.5,9.1,10.1h-2.7c-5.2,0-9.9,3-12.1,7.5
		c-3.6-3.9-5.9-9.1-5.9-14.8c0-12,9.8-21.7,21.7-21.7S57.2,22,57.2,34C57.2,39.8,54.9,45,51.3,48.9"/>
</g>
</svg>
