<?xml version="1.0" encoding="utf-8"?>
<!-- Generator: Adobe Illustrator 16.0.0, SVG Export Plug-In . SVG Version: 6.00 Build 0)  -->
<!DOCTYPE svg PUBLIC "-//W3C//DTD SVG 1.1//EN" "http://www.w3.org/Graphics/SVG/1.1/DTD/svg11.dtd">
<svg version="1.1" id="Layer_1" xmlns="http://www.w3.org/2000/svg" xmlns:xlink="http://www.w3.org/1999/xlink" x="0px" y="0px"
	 width="807.751px" height="276.01px" viewBox="0 0 807.751 276.01" enable-background="new 0 0 807.751 276.01"
	 xml:space="preserve">
<polygon fill="#003B71" points="726.376,193.856 613.896,193.856 613.896,81.37 658.592,81.37 658.592,59.757 592.254,59.757 
	592.254,215.493 747.993,215.493 747.993,151.223 726.376,151.223 "/>
<polygon fill="#7DAED3" points="680.203,59.758 680.203,81.369 711.022,81.369 663.281,129.139 679.029,144.859 726.376,97.516 
	726.376,129.694 747.993,129.694 747.993,59.758 "/>
<g>
	<defs>
		<rect id="SVGID_1_" width="807.751" height="276.01"/>
	</defs>
	<clipPath id="SVGID_2_">
		<use xlink:href="#SVGID_1_"  overflow="visible"/>
	</clipPath>
	<path clip-path="url(#SVGID_2_)" fill="#003B71" d="M115.512,179.999H97.448v-6.691h25.756v38.689
		c-7.916,3.461-15.609,4.797-24.196,4.797c-24.531,0-39.25-16.17-39.25-40.254c0-23.64,15.166-40.253,39.25-40.253
		c5.911,0,15.611,1.006,20.851,3.682l-0.892,7.134c-6.02-3.345-13.157-4.125-19.959-4.125c-20.184,0-31.555,14.272-31.555,33.562
		c0,19.627,11.04,33.564,31.555,33.564c4.796,0,12.822-0.561,16.504-2.789V179.999z"/>
	<path clip-path="url(#SVGID_2_)" fill="#003B71" d="M140.596,205.53c4.571,2.9,9.923,4.574,17.169,4.574
		c9.59,0,17.507-4.906,17.507-15.945c0-15.277-35.681-17.17-35.681-37.577c0-12.486,10.928-20.295,24.643-20.295
		c3.789,0,9.924,0.556,15.276,2.566l-1.227,7.02c-3.457-1.891-8.919-2.896-14.161-2.896c-8.028,0-16.838,3.346-16.838,13.381
		c0,15.608,35.68,15.722,35.68,38.47c0,15.721-13.49,21.967-25.532,21.967c-7.583,0-13.493-1.564-17.619-3.35L140.596,205.53z"/>
	<path clip-path="url(#SVGID_2_)" fill="#003B71" d="M222.214,137.624h8.697l30.884,77.834h-8.026l-8.363-20.855h-39.25
		l-8.363,20.855h-7.471L222.214,137.624z M226.005,144.982l-16.95,42.931h33.786L226.005,144.982z"/>
	<polygon clip-path="url(#SVGID_2_)" fill="#7DAED3" points="271.829,137.623 308.849,137.623 308.849,144.312 279.523,144.312 
		279.523,172.08 308.849,172.08 308.849,178.771 279.523,178.771 279.523,215.458 271.829,215.458 	"/>
	<path clip-path="url(#SVGID_2_)" fill="#7DAED3" d="M353.001,136.287c23.415,0,34.454,19.178,34.233,40.253
		c-0.223,23.865-11.821,40.254-34.233,40.254c-22.414,0-34.011-16.389-34.232-40.254
		C318.545,155.465,329.584,136.287,353.001,136.287 M326.464,176.54c0,16.502,8.25,33.564,26.537,33.564
		c18.286,0,26.537-17.062,26.537-33.564c0-16.505-8.251-33.562-26.537-33.562C334.714,142.978,326.464,160.035,326.464,176.54"/>
	<path clip-path="url(#SVGID_2_)" fill="#7DAED3" d="M403.062,137.623h20.068c13.827,0,22.86,5.911,22.86,20.184
		c0,10.035-7.693,16.726-17.282,17.954v0.225c6.242,0.779,7.583,4.119,10.033,9.361l13.269,30.111h-8.475l-11.26-26.316
		c-4.461-10.037-7.807-10.371-15.165-10.371h-6.356v36.688h-7.692V137.623z M410.754,172.079h8.141
		c9.031,0,19.402-3.452,19.402-14.272c0-12.709-9.031-13.494-19.627-13.494h-7.916V172.079z"/>
	<path clip-path="url(#SVGID_2_)" fill="#7DAED3" d="M518.241,146.322c-4.905-2.564-11.931-3.346-17.394-3.346
		c-20.184,0-31.556,14.273-31.556,33.563c0,19.627,11.038,33.564,31.556,33.564c5.129,0,12.934-0.668,17.394-3.346l0.446,6.686
		c-4.235,2.57-12.935,3.35-17.84,3.35c-24.533,0-39.252-16.17-39.252-40.254c0-23.64,15.165-40.253,39.252-40.253
		c4.57,0,13.826,0.785,17.84,2.896L518.241,146.322z"/>
	<polygon clip-path="url(#SVGID_2_)" fill="#7DAED3" points="532.509,137.623 570.645,137.623 570.645,144.312 540.204,144.312 
		540.204,172.08 570.645,172.08 570.645,178.771 540.204,178.771 540.204,208.763 570.645,208.763 570.645,215.458 532.509,215.458 
			"/>
</g>
</svg>
