<?xml version="1.0" encoding="utf-8"?>
<!-- Generator: Adobe Illustrator 21.0.0, SVG Export Plug-In . SVG Version: 6.00 Build 0)  -->
<svg version="1.1" id="Layer_1" xmlns="http://www.w3.org/2000/svg" xmlns:xlink="http://www.w3.org/1999/xlink" x="0px" y="0px"
	 viewBox="0 0 97.1 82.2" style="enable-background:new 0 0 97.1 82.2;" xml:space="preserve">
<style type="text/css">
	.st0{clip-path:url(#SVGID_2_);fill:#093C71;}
	.st1{clip-path:url(#SVGID_2_);fill:#8BB4D9;}
</style>
<g>
	<defs>
		<rect id="SVGID_1_" y="0" width="97.1" height="82.2"/>
	</defs>
	<clipPath id="SVGID_2_">
		<use xlink:href="#SVGID_1_"  style="overflow:visible;"/>
	</clipPath>
	<path class="st0" d="M91,48l-0.5-4l3.3-4.8l-4.9-7l-6.1,2.3l-3.5-2.3l-0.9-5.4l-8-1l-2.8,5.4l-3.8,1.1L59,28.9l-6.4,3.4l1.9,5.8
		l-2.4,4l-5.9,1l-0.9,8.3l5.1,1.7c0,0,2,5.4,1.5,5.4c-0.5,0-3.7,4.7-3.7,4.7l4.2,6.6l7-2.8l3.3,2.8l0.5,6.1l8.2,1.2l2.4-5.4l3.6-0.9
		l5.6,3.1l6.1-4.1l-1.7-5.7l1.7-3.4l6.6-1.4l1.4-8.3L91,48z M71.2,62.5c-6.5,0-11.7-5-11.7-11.2c0-6.2,5.2-11.2,11.7-11.2
		c6.5,0,11.7,5,11.7,11.2C82.9,57.5,77.7,62.5,71.2,62.5"/>
	<path class="st0" d="M42.6,63l5-3l-1.5-6.4L41,52.2l-1.5-3.3l2.1-5.1L36.1,39l-4.3,2.6l-3.7-1l-2-5.6l-7.7,0.8L17,40.9l-3.1,2
		l-5.5-2.6l-5,5.9l2.9,5.4L5,54.8L0,57l0.7,6.6l5.5,2l1.6,3l-2.3,4.8l5.7,4.9l4.5-3.2l3.9,0.6l2.2,6.4l7-1c0,0,1.4-4.9,1.1-5.3
		c-0.3-0.4,4-1.9,4-1.9l4.9,2.3l4.7-5.4l-2.9-4.8L42.6,63z M30.3,66.6c-4.3,3.6-10.9,3-14.7-1.5c-3.8-4.5-3.5-11,0.8-14.7
		c4.3-3.7,10.9-3,14.7,1.5C35,56.3,34.6,62.9,30.3,66.6"/>
	<path class="st1" d="M55,17.3l3.6-2.8l-2.4-5.6l-4.8,0.4l-1.6-2.8l-0.4-4.9L44,0.2l-3,3.4l-3.1-0.1L34.8,0L29,2.3l0.4,4.2l-2.2,2.4
		l-5-0.6l-2.3,6.2l3.4,3l0.4,3.1l-4,3.2l2.6,6l5.2-0.2l2,2.3l-0.2,4.6l5.3,2l3.6-3.4l2.9,0l2.8,3.6l5.9-2.4L49,31.5l2-2.7l5.7,0.8
		l1.9-5.7c0,0-3.2-2.9-3.6-2.8C54.5,21.1,55,17.3,55,17.3 M41.2,27.7c-4.9,1.2-9.7-1.6-10.9-6.2c-1.2-4.6,1.8-9.4,6.7-10.6
		c4.9-1.2,9.7,1.6,10.9,6.2C49.1,21.8,46.1,26.5,41.2,27.7"/>
</g>
</svg>
