<?xml version="1.0" encoding="utf-8"?>
<!-- Generator: Adobe Illustrator 21.0.0, SVG Export Plug-In . SVG Version: 6.00 Build 0)  -->
<svg version="1.1" id="Layer_1" xmlns="http://www.w3.org/2000/svg" xmlns:xlink="http://www.w3.org/1999/xlink" x="0px" y="0px"
	 viewBox="0 0 19 23" style="enable-background:new 0 0 19 23;" xml:space="preserve">
<style type="text/css">
	.st0{clip-path:url(#SVGID_2_);fill:#093C71;}
	.st1{clip-path:url(#SVGID_2_);fill:#8BB4D9;}
</style>
<g>
	<defs>
		<rect id="SVGID_1_" width="19" height="23"/>
	</defs>
	<clipPath id="SVGID_2_">
		<use xlink:href="#SVGID_1_"  style="overflow:visible;"/>
	</clipPath>
	<path class="st0" d="M9.5,0L0,4.2v6.3C0,16.3,4,21.7,9.4,23h0.1h0.1c5.3-1.3,9.4-6.7,9.4-12.5V4.2L9.5,0z M18,10.5
		c0,5.3-3.6,10.2-8.5,11.5C4.6,20.7,1,15.8,1,10.5V4.8L9.5,1L18,4.8V10.5z"/>
	<path class="st1" d="M5.8,10c-0.4-0.4-1-0.4-1.4,0c-0.4,0.4-0.4,1,0,1.4l3.1,3.1c0.2,0.2,0.5,0.3,0.7,0.3s0.5-0.1,0.7-0.3l5.7-5.7
		c0.4-0.4,0.4-1,0-1.4c-0.4-0.4-1-0.4-1.4,0l-5,5L5.8,10z"/>
</g>
</svg>
