<?xml version="1.0" encoding="utf-8"?>
<!-- Generator: Adobe Illustrator 21.0.0, SVG Export Plug-In . SVG Version: 6.00 Build 0)  -->
<svg version="1.1" id="Layer_1" xmlns="http://www.w3.org/2000/svg" xmlns:xlink="http://www.w3.org/1999/xlink" x="0px" y="0px"
	 viewBox="0 0 79.2 89.8" style="enable-background:new 0 0 79.2 89.8;" xml:space="preserve">
<style type="text/css">
	.st0{clip-path:url(#SVGID_2_);fill:#093C71;}
	.st1{clip-path:url(#SVGID_2_);fill:#8BB4D9;}
</style>
<g>
	<defs>
		<rect id="SVGID_1_" width="79.2" height="89.8"/>
	</defs>
	<clipPath id="SVGID_2_">
		<use xlink:href="#SVGID_1_"  style="overflow:visible;"/>
	</clipPath>
	<path class="st0" d="M78.8,53.2l-10.3-21C68.2,14.7,52.6,0,34.2,0C19.9,0,6.2,9.2,1.8,21.9c-3,6.6-1.6,18.7-0.3,29.5
		c0.4,3.4,0.8,6.7,1,9.5v26.9c0,1.1,0.9,2,2,2h45.2c1.1,0,2-0.9,2-2V78h7.7c4.4,0,8-3.6,8-8V58.9h7.8c2.2,0.1,4-1.6,4-3.8
		C79.3,54.5,79.1,53.8,78.8,53.2 M65.4,54.9c-1.1,0-2,0.9-2,2V70c0,2.2-1.8,4-4,4h-9.7c-1.1,0-2,0.9-2,2v9.8H6.5v-25
		c-0.2-2.9-0.6-6.2-1-9.8c-1.2-9.8-2.6-21.9,0-27.4v-0.2c3.9-11.2,16-19.3,28.7-19.3c16.4-0.1,30.3,13,30.3,28.6
		c0,0.3,0.1,0.6,0.2,0.9l10.5,21.3H65.4z"/>
	<path class="st1" d="M57,31.5L53.9,31c-0.4-1.4-1-2.8-1.7-4.1l1.8-2.5c0.6-0.8,0.5-1.9-0.2-2.6l-4.1-4.1c-0.7-0.7-1.8-0.8-2.6-0.2
		l-2.6,1.8c-1.2-0.8-2.6-1.3-4-1.7L40,14.5c-0.2-0.9-1-1.6-2-1.6h-5.8c-1,0-1.8,0.7-2,1.6l-0.5,3.1c-1.4,0.4-2.8,0.9-4.1,1.7
		l-2.5-1.8c-0.8-0.6-1.9-0.5-2.6,0.2l-4.1,4.1c-0.7,0.7-0.8,1.8-0.2,2.6l1.7,2.5c-0.7,1.3-1.2,2.7-1.6,4.1l-3.1,0.5
		c-1,0.2-1.7,1-1.7,2v5.8c0,1,0.7,1.9,1.7,2l3.1,0.5c0.4,1.4,0.9,2.8,1.6,4.1l-1.7,2.5c-0.6,0.8-0.5,1.9,0.2,2.6l4.1,4.1
		c0.7,0.7,1.8,0.8,2.6,0.2l2.5-1.8c1.3,0.7,2.7,1.3,4.1,1.7l0.5,3.1c0.2,0.9,1,1.6,2,1.6H38c1,0,1.8-0.7,2-1.6l0.5-3.1
		c1.4-0.4,2.7-1,4-1.7l2.6,1.8c0.8,0.6,1.9,0.5,2.6-0.2l4.1-4.1c0.7-0.7,0.8-1.8,0.2-2.6l-1.8-2.5c0.7-1.3,1.3-2.7,1.7-4.1l3.1-0.5
		c0.9-0.2,1.6-1,1.6-2v-5.8C58.6,32.5,57.9,31.7,57,31.5 M54.6,37.6l-2.7,0.5c-0.8,0.2-1.4,0.8-1.6,1.6c-0.4,1.8-1.1,3.6-2.1,5.2
		c-0.5,0.6-0.5,1.6,0,2.2l1.6,2.2L48,51.1l-2.2-1.6c-0.7-0.5-1.6-0.5-2.3,0c-1.6,1-3.4,1.7-5.2,2.1c-0.8,0.2-1.4,0.9-1.5,1.7
		l-0.5,2.6h-2.5l-0.4-2.6c-0.2-0.8-0.8-1.5-1.6-1.7c-1.8-0.4-3.6-1.1-5.2-2.1c-0.6-0.5-1.6-0.5-2.2,0l-2.3,1.6l-1.7-1.8l1.6-2.2
		c0.4-0.7,0.4-1.5,0-2.2c-1-1.6-1.8-3.4-2.2-5.2c-0.1-0.8-0.8-1.5-1.6-1.6l-2.7-0.5v-2.4l2.7-0.5c0.8-0.1,1.5-0.8,1.6-1.6
		c0.4-1.8,1.2-3.6,2.2-5.2c0.4-0.7,0.4-1.5,0-2.2l-1.6-2.2l1.7-1.8l2.3,1.6c0.6,0.5,1.6,0.5,2.2,0c1.6-1,3.4-1.7,5.2-2.1
		c0.8-0.2,1.4-0.9,1.6-1.7l0.4-2.6h2.5l0.5,2.6c0.1,0.8,0.7,1.5,1.5,1.7c1.8,0.4,3.6,1.1,5.2,2.1c0.7,0.5,1.6,0.5,2.3,0l2.2-1.6
		l1.8,1.8l-1.6,2.2c-0.5,0.6-0.5,1.6,0,2.2c1,1.6,1.7,3.4,2.1,5.2c0.2,0.8,0.8,1.4,1.6,1.6l2.7,0.5V37.6z"/>
	<path class="st1" d="M35.1,26.8c-5.3-0.1-9.6,4.2-9.7,9.5c-0.1,5.3,4.2,9.6,9.5,9.7c5.3,0.1,9.6-4.2,9.7-9.5c0,0,0-0.1,0-0.1
		C44.6,31.1,40.4,26.9,35.1,26.8 M35.1,42c-3.1,0-5.6-2.5-5.6-5.6s2.5-5.6,5.6-5.6s5.6,2.5,5.6,5.6S38.2,42,35.1,42"/>
</g>
</svg>
