<svg xmlns="http://www.w3.org/2000/svg" viewBox="0 0 688.23 157.04"><defs><style>.cls-1{fill:#003b71;}.cls-2{fill:#7daed3;}</style></defs><title>logo-color</title><g id="Capa_2" data-name="Capa 2"><g id="Layer_1" data-name="Layer 1"><polygon class="cls-1" points="666.62 134.1 554.14 134.1 554.14 21.61 598.83 21.61 598.83 0 532.5 0 532.5 155.74 688.24 155.74 688.24 91.47 666.62 91.47 666.62 134.1"/><polygon class="cls-2" points="620.45 0 620.45 21.61 651.26 21.61 603.52 69.38 619.27 85.1 666.62 37.76 666.62 69.94 688.24 69.94 688.24 0 620.45 0"/><path class="cls-1" d="M55.75,120.24H37.69v-6.69H63.45v38.69a58.23,58.23,0,0,1-24.2,4.8C14.72,157,0,140.87,0,116.78,0,93.14,15.17,76.53,39.25,76.53c5.91,0,15.61,1,20.85,3.68l-.89,7.14c-6-3.35-13.16-4.13-20-4.13-20.18,0-31.56,14.27-31.56,33.56,0,19.63,11,33.57,31.56,33.57,4.8,0,12.82-.56,16.5-2.79Z"/><path class="cls-1" d="M80.84,145.77c4.57,2.9,9.92,4.58,17.17,4.58,9.59,0,17.5-4.91,17.5-15.95,0-15.28-35.68-17.17-35.68-37.57,0-12.49,10.93-20.3,24.65-20.3a46.33,46.33,0,0,1,15.27,2.57l-1.22,7c-3.46-1.9-8.92-2.9-14.17-2.9-8,0-16.83,3.35-16.83,13.38,0,15.61,35.68,15.72,35.68,38.47,0,15.72-13.49,22-25.54,22a44.45,44.45,0,0,1-17.61-3.35Z"/><path class="cls-1" d="M162.46,77.87h8.69L202,155.7h-8l-8.36-20.85H146.4L138,155.7h-7.48Zm3.79,7.35L149.3,128.16h33.78Z"/><polygon class="cls-2" points="212.07 77.87 249.09 77.87 249.09 84.56 219.76 84.56 219.76 112.32 249.09 112.32 249.09 119.01 219.76 119.01 219.76 155.7 212.07 155.7 212.07 77.87"/><path class="cls-2" d="M293.24,76.53c23.42,0,34.46,19.18,34.24,40.25-.23,23.87-11.83,40.26-34.24,40.26s-34-16.39-34.23-40.26c-.22-21.07,10.82-40.25,34.23-40.25m-26.53,40.25c0,16.5,8.25,33.57,26.53,33.57s26.54-17.07,26.54-33.57-8.25-33.56-26.54-33.56-26.53,17.06-26.53,33.56"/><path class="cls-2" d="M343.3,77.87h20.07c13.83,0,22.86,5.91,22.86,20.18,0,10-7.69,16.73-17.28,18v.23c6.24.78,7.58,4.12,10,9.36l13.27,30.11h-8.47l-11.26-26.31c-4.46-10-7.81-10.38-15.17-10.38H351V155.7h-7.7V77.87Zm7.7,34.45h8.14c9,0,19.4-3.45,19.4-14.27,0-12.71-9-13.49-19.63-13.49H351Z"/><path class="cls-2" d="M458.48,86.57c-4.9-2.57-11.93-3.35-17.39-3.35-20.18,0-31.56,14.27-31.56,33.56,0,19.63,11,33.57,31.56,33.57,5.13,0,12.93-.67,17.39-3.35l.45,6.69C454.69,156.26,446,157,441.09,157c-24.53,0-39.25-16.17-39.25-40.26,0-23.64,15.16-40.25,39.25-40.25,4.57,0,13.83.78,17.84,2.9Z"/><polygon class="cls-2" points="472.75 77.87 510.89 77.87 510.89 84.56 480.45 84.56 480.45 112.32 510.89 112.32 510.89 119.01 480.45 119.01 480.45 149.01 510.89 149.01 510.89 155.7 472.75 155.7 472.75 77.87"/></g></g></svg>