<?xml version="1.0" encoding="utf-8"?>
<!-- Generator: Adobe Illustrator 23.0.3, SVG Export Plug-In . SVG Version: 6.00 Build 0)  -->
<svg version="1.1" id="Capa_1" xmlns="http://www.w3.org/2000/svg" xmlns:xlink="http://www.w3.org/1999/xlink" x="0px" y="0px"
	 viewBox="0 0 688.2 157" style="enable-background:new 0 0 688.2 157;" xml:space="preserve">
<title>logo-white</title>
<g>
	<polygon points="666.6,134.1 554.1,134.1 554.1,21.6 598.8,21.6 598.8,0 532.5,0 532.5,155.7 688.2,155.7 688.2,91.5 666.6,91.5 	
		"/>
	<polygon points="620.5,0 620.5,21.6 651.3,21.6 603.5,69.4 619.3,85.1 666.6,37.8 666.6,69.9 688.2,69.9 688.2,0 	"/>
	<path d="M37.7,120.2h18.1v27.3c-3.7,2.2-11.7,2.8-16.5,2.8c-20.5,0-31.5-13.9-31.5-33.6c0-19.3,11.4-33.6,31.5-33.6
		c6.8,0,13.9,0.8,20,4.1l0.9-7.1c-5.2-2.7-14.9-3.7-20.9-3.7C15.2,76.5,0,93.1,0,116.8C0,140.9,14.7,157,39.3,157
		c8.3,0.1,16.6-1.5,24.2-4.8v-38.6H37.7V120.2z"/>
	<path d="M87.5,96.6c0-10,8.8-13.4,16.8-13.4c5.3,0,10.7,1,14.2,2.9l1.2-7c-4.9-1.7-10.1-2.6-15.3-2.6c-13.7,0-24.6,7.8-24.6,20.3
		c0,20.4,35.7,22.3,35.7,37.6c0,11-7.9,16-17.5,16c-7.3,0-12.6-1.7-17.2-4.6l-0.8,7.9c5.6,2.3,11.6,3.4,17.6,3.3
		c12,0,25.5-6.3,25.5-22C123.2,112.3,87.5,112.2,87.5,96.6z"/>
	<path d="M162.5,77.9l-31.9,77.8h7.4l8.4-20.9h39.3l8.4,20.8h8l-30.8-77.8H162.5z M149.3,128.2l17-42.9l16.8,42.9H149.3z"/>
	<polygon points="212.1,155.7 219.8,155.7 219.8,119 249.1,119 249.1,112.3 219.8,112.3 219.8,84.6 249.1,84.6 249.1,77.9 
		212.1,77.9 	"/>
	<path d="M293.2,76.5c-23.4,0-34.5,19.2-34.2,40.3c0.2,23.9,11.8,40.3,34.2,40.3c22.4,0,34-16.4,34.2-40.3
		C327.7,95.7,316.7,76.5,293.2,76.5z M293.2,150.3c-18.3,0-26.5-17.1-26.5-33.6s8.3-33.6,26.5-33.6s26.5,17.1,26.5,33.6
		S311.5,150.3,293.2,150.3z"/>
	<path d="M369,116.2V116c9.6-1.2,17.3-7.9,17.3-18c0-14.3-9-20.2-22.9-20.2h-20.1v77.9h7.7V119h6.4c7.4,0,10.7,0.3,15.2,10.4
		l11.3,26.3h8.5L379,125.6C376.5,120.3,375.2,117,369,116.2z M359.1,112.3H351V84.6h7.9c10.6,0,19.6,0.8,19.6,13.5
		C378.5,108.9,368.2,112.3,359.1,112.3z"/>
	<path d="M441.1,83.2c5.5,0,12.5,0.8,17.4,3.4l0.5-7.1c-4-2.1-13.3-2.9-17.8-2.9c-24.1,0-39.3,16.6-39.3,40.3
		c0,24.1,14.7,40.3,39.3,40.3c4.9,0,13.6-0.8,17.8-3.4l-0.5-6.7c-4.5,2.7-12.3,3.4-17.4,3.4c-20.5,0-31.6-13.9-31.6-33.6
		C409.5,97.5,420.9,83.2,441.1,83.2z"/>
	<polygon points="472.8,155.7 510.9,155.7 510.9,149 480.5,149 480.5,119 510.9,119 510.9,112.3 480.5,112.3 480.5,84.6 510.9,84.6 
		510.9,77.9 472.8,77.9 	"/>
</g>
</svg>
