<svg xmlns="http://www.w3.org/2000/svg" viewBox="0 0 688.23 157.04"><defs><style>.cls-1{fill:#fff;}</style></defs><title>logo-white</title><g id="Capa_2" data-name="Capa 2"><g id="Layer_1" data-name="Layer 1"><polygon class="cls-1" points="666.62 134.1 554.14 134.1 554.14 21.61 598.83 21.61 598.83 0 532.5 0 532.5 155.74 688.24 155.74 688.24 91.47 666.62 91.47 666.62 134.1"/><polygon class="cls-1" points="620.45 0 620.45 21.61 651.26 21.61 603.52 69.38 619.27 85.1 666.62 37.76 666.62 69.94 688.24 69.94 688.24 0 620.45 0"/><path class="cls-1" d="M37.69,120.24H55.75v27.32c-3.68,2.23-11.7,2.79-16.5,2.79-20.52,0-31.55-13.94-31.55-33.57,0-19.29,11.37-33.56,31.55-33.56,6.8,0,13.94.78,20,4.13l.89-7.14c-5.24-2.67-14.94-3.68-20.85-3.68C15.17,76.53,0,93.14,0,116.78,0,140.87,14.72,157,39.25,157a58.23,58.23,0,0,0,24.2-4.8V113.55H37.69Z"/><path class="cls-1" d="M87.53,96.6c0-10,8.81-13.38,16.83-13.38,5.25,0,10.71,1,14.17,2.9l1.22-7a46.33,46.33,0,0,0-15.27-2.57c-13.72,0-24.65,7.81-24.65,20.3,0,20.4,35.68,22.3,35.68,37.57,0,11-7.91,15.95-17.5,15.95-7.25,0-12.6-1.68-17.17-4.58l-.78,7.92A44.45,44.45,0,0,0,97.67,157c12,0,25.54-6.25,25.54-22C123.21,112.32,87.53,112.21,87.53,96.6Z"/><path class="cls-1" d="M162.46,77.87l-31.9,77.83H138l8.36-20.85h39.25L194,155.7h8L171.15,77.87ZM149.3,128.16l16.95-42.93,16.83,42.93Z"/><polygon class="cls-1" points="212.07 155.7 219.76 155.7 219.76 119.01 249.09 119.01 249.09 112.32 219.76 112.32 219.76 84.56 249.09 84.56 249.09 77.87 212.07 77.87 212.07 155.7"/><path class="cls-1" d="M293.24,76.53c-23.41,0-34.45,19.18-34.23,40.25.22,23.87,11.82,40.26,34.23,40.26s34-16.39,34.24-40.26C327.7,95.71,316.66,76.53,293.24,76.53Zm0,73.82c-18.28,0-26.53-17.06-26.53-33.57S275,83.22,293.24,83.22s26.54,17.06,26.54,33.56S311.53,150.35,293.24,150.35Z"/><path class="cls-1" d="M369,116.23V116c9.59-1.22,17.28-7.91,17.28-18,0-14.27-9-20.18-22.86-20.18H343.3V155.7H351V119h6.35c7.36,0,10.71.34,15.17,10.38l11.26,26.31h8.47L379,125.59C376.53,120.35,375.19,117,369,116.23Zm-9.81-3.91H351V84.56h7.91c10.6,0,19.63.78,19.63,13.49C378.54,108.87,368.17,112.32,359.14,112.32Z"/><path class="cls-1" d="M441.09,83.22c5.46,0,12.49.78,17.39,3.35l.45-7.14c-4-2.12-13.27-2.9-17.84-2.9-24.09,0-39.25,16.61-39.25,40.25,0,24.09,14.72,40.26,39.25,40.26,4.9,0,13.6-.78,17.84-3.35l-.45-6.69c-4.46,2.68-12.26,3.35-17.39,3.35-20.52,0-31.56-13.94-31.56-33.57C409.53,97.49,420.91,83.22,441.09,83.22Z"/><polygon class="cls-1" points="472.75 155.7 510.89 155.7 510.89 149.01 480.45 149.01 480.45 119.01 510.89 119.01 510.89 112.32 480.45 112.32 480.45 84.56 510.89 84.56 510.89 77.87 472.75 77.87 472.75 155.7"/></g></g></svg>